<svg width="25" height="24" viewBox="0 0 25 24" fill="none" xmlns="http://www.w3.org/2000/svg">
<g id="icon / 24x24 / ic24-google-plus">
<path id="Icon" fill-rule="evenodd" clip-rule="evenodd" d="M16.3357 7.45704C15.3032 6.47232 13.9253 5.93587 12.4997 5.95792C9.8909 5.95792 7.67528 7.71792 6.8853 10.0879C6.46643 11.3298 6.46643 12.6746 6.8853 13.9165H6.88898C7.68263 16.2828 9.89457 18.0428 12.5033 18.0428C13.85 18.0428 15.0061 17.6983 15.9021 17.0899V17.0874C16.9566 16.3893 17.6768 15.2907 17.9009 14.0488H12.4997V10.1981H21.9316C22.0492 10.8668 22.1043 11.5502 22.1043 12.23C22.1043 15.2714 21.0174 17.8428 19.1261 19.5844L19.1281 19.586C17.471 21.1145 15.1966 22 12.4997 22C8.71879 22 5.26125 19.8689 3.56372 16.4922C2.14543 13.6666 2.14543 10.3377 3.56372 7.51215C5.26125 4.13178 8.71879 2.00067 12.4997 2.00067C14.9835 1.97128 17.3828 2.90456 19.1906 4.60209L16.3357 7.45704Z" fill="url(#paint0_linear_1_103)"/>
</g>
<defs>
<linearGradient id="paint0_linear_1_103" x1="22.1043" y1="22" x2="2.18046" y2="21.6764" gradientUnits="userSpaceOnUse">
<stop stop-color="#888BF4"/>
<stop offset="1" stop-color="#5151C6"/>
</linearGradient>
</defs>
</svg>
