<svg width="25" height="24" viewBox="0 0 25 24" fill="none" xmlns="http://www.w3.org/2000/svg">
<g id="facebook-fill">
<path id="&#240;&#159;&#142;&#168; Icon &#208;&#161;olor" d="M17.5 3.5C17.5 3.224 17.275 3 17 3H14.5C11.738 3 9.5 5.015 9.5 7.5V10.2H7C6.724 10.2 6.5 10.424 6.5 10.7V13.3C6.5 13.576 6.724 13.8 7 13.8H9.5V20.5C9.5 20.776 9.724 21 10 21H13C13.275 21 13.5 20.776 13.5 20.5V13.8H16.119C16.344 13.8 16.541 13.65 16.602 13.434L17.323 10.834C17.412 10.516 17.172 10.2 16.842 10.2H13.5V7.5C13.5 7.003 13.947 6.6 14.5 6.6H17C17.275 6.6 17.5 6.376 17.5 6.1V3.5Z" fill="url(#paint0_linear_2_50)"/>
</g>
<defs>
<linearGradient id="paint0_linear_2_50" x1="17.5" y1="21" x2="6.3189" y2="20.8868" gradientUnits="userSpaceOnUse">
<stop stop-color="#888BF4"/>
<stop offset="1" stop-color="#5151C6"/>
</linearGradient>
</defs>
</svg>
